<svg width="200" height="200" xmlns="http://www.w3.org/2000/svg" xmlns:xlink="http://www.w3.org/1999/xlink" version="1.1">
 <defs>
  <pattern xlink:href="#a" patternTransform="scale(.3875 .4875)" id="r"/>
  <pattern xlink:href="#a" patternTransform="scale(1.0988 .84135)" id="q"/>
  <pattern xlink:href="#a" patternTransform="scale(.46784 .59789)" id="o"/>
  <pattern xlink:href="#b" patternTransform="matrix(.39814 -.41409 4.7353 4.5529 -4.0346 -2.2456)" id="n"/>
  <pattern xlink:href="#a" patternTransform="matrix(.59443 0 0 .58444 -4.0346 -2.2456)" id="m"/>
  <pattern patternUnits="userSpaceOnUse" patternTransform="translate(0) scale(10)" height="10" width="10" id="a">
   <circle id="svg_1" r="0.45" cy="0.81" cx="2.567"/>
   <circle id="svg_2" r="0.45" cy="2.33" cx="3.048"/>
   <circle id="svg_3" r="0.45" cy="2.415" cx="4.418"/>
   <circle id="svg_4" r="0.45" cy="3.029" cx="1.844"/>
   <circle id="svg_5" r="0.45" cy="1.363" cx="6.08"/>
   <circle id="svg_6" r="0.45" cy="4.413" cx="5.819"/>
   <circle id="svg_7" r="0.45" cy="4.048" cx="4.305"/>
   <circle id="svg_8" r="0.45" cy="3.045" cx="5.541"/>
   <circle id="svg_9" r="0.45" cy="5.527" cx="4.785"/>
   <circle id="svg_10" r="0.45" cy="5.184" cx="2.667"/>
   <circle id="svg_11" r="0.45" cy="1.448" cx="7.965"/>
   <circle id="svg_12" r="0.45" cy="5.049" cx="7.047"/>
   <circle id="svg_13" r="0.45" cy="0.895" cx="4.34"/>
   <circle id="svg_14" r="0.45" cy="0.34" cx="7.125"/>
   <circle id="svg_15" r="0.45" cy="1.049" cx="9.553"/>
   <circle id="svg_16" r="0.45" cy="2.689" cx="7.006"/>
   <circle id="svg_17" r="0.45" cy="2.689" cx="8.909"/>
   <circle id="svg_18" r="0.45" cy="4.407" cx="9.315"/>
   <circle id="svg_19" r="0.45" cy="3.87" cx="7.82"/>
   <circle id="svg_20" r="0.45" cy="5.948" cx="8.27"/>
   <circle id="svg_21" r="0.45" cy="7.428" cx="7.973"/>
   <circle id="svg_22" r="0.45" cy="8.072" cx="9.342"/>
   <circle id="svg_23" r="0.45" cy="9.315" cx="8.206"/>
   <circle id="svg_24" r="0.45" cy="9.475" cx="9.682"/>
   <circle id="svg_25" r="0.45" cy="6.186" cx="9.688"/>
   <circle id="svg_26" r="0.45" cy="6.296" cx="3.379"/>
   <circle id="svg_27" r="0.45" cy="8.204" cx="2.871"/>
   <circle id="svg_28" r="0.45" cy="8.719" cx="4.59"/>
   <circle id="svg_29" r="0.45" cy="9.671" cx="3.181"/>
   <circle id="svg_30" r="0.45" cy="7.315" cx="5.734"/>
   <circle id="svg_31" r="0.45" cy="6.513" cx="6.707"/>
   <circle id="svg_32" r="0.45" cy="9.67" cx="5.73"/>
   <circle id="svg_33" r="0.45" cy="8.373" cx="6.535"/>
   <circle id="svg_34" r="0.45" cy="7.154" cx="4.37"/>
   <circle id="svg_35" r="0.45" cy="7.25" cx="0.622"/>
   <circle id="svg_36" r="0.45" cy="5.679" cx="0.831"/>
   <circle id="svg_37" r="0.45" cy="8.519" cx="1.257"/>
   <circle id="svg_38" r="0.45" cy="6.877" cx="1.989"/>
   <circle id="svg_39" r="0.45" cy="3.181" cx="0.374"/>
   <circle id="svg_40" r="0.45" cy="1.664" cx="1.166"/>
   <circle id="svg_41" r="0.45" cy="0.093" cx="1.151"/>
   <circle id="svg_42" r="0.45" cy="10.093" cx="1.151"/>
   <circle id="svg_43" r="0.45" cy="4.451" cx="1.302"/>
   <circle id="svg_44" r="0.45" cy="3.763" cx="3.047"/>
  </pattern>
  <pattern xlink:href="#b" patternTransform="matrix(.36461 .4439 -2.2196 1.8231 -4.0346 -2.2456)" id="l"/>
  <pattern patternUnits="userSpaceOnUse" patternTransform="translate(0) scale(10)" height="1" width="2" id="b">
   <rect id="svg_45" height="2" width="1" y="-0.5"/>
  </pattern>
  <pattern patternTransform="matrix(-.46784 0 0 .59789 105.44 1.4096)" xlink:href="#k" id="p"/>
  <pattern patternUnits="userSpaceOnUse" patternTransform="translate(0) scale(10)" height="10" width="10" id="k">
   <circle id="svg_46" r="0.45" cy="0.81" cx="2.567"/>
   <circle id="svg_47" r="0.45" cy="2.33" cx="3.048"/>
   <circle id="svg_48" r="0.45" cy="2.415" cx="4.418"/>
   <circle id="svg_49" r="0.45" cy="3.029" cx="1.844"/>
   <circle id="svg_50" r="0.45" cy="1.363" cx="6.08"/>
   <circle id="svg_51" r="0.45" cy="4.413" cx="5.819"/>
   <circle id="svg_52" r="0.45" cy="4.048" cx="4.305"/>
   <circle id="svg_53" r="0.45" cy="3.045" cx="5.541"/>
   <circle id="svg_54" r="0.45" cy="5.527" cx="4.785"/>
   <circle id="svg_55" r="0.45" cy="5.184" cx="2.667"/>
   <circle id="svg_56" r="0.45" cy="1.448" cx="7.965"/>
   <circle id="svg_57" r="0.45" cy="5.049" cx="7.047"/>
   <circle id="svg_58" r="0.45" cy="0.895" cx="4.34"/>
   <circle id="svg_59" r="0.45" cy="0.34" cx="7.125"/>
   <circle id="svg_60" r="0.45" cy="1.049" cx="9.553"/>
   <circle id="svg_61" r="0.45" cy="2.689" cx="7.006"/>
   <circle id="svg_62" r="0.45" cy="2.689" cx="8.909"/>
   <circle id="svg_63" r="0.45" cy="4.407" cx="9.315"/>
   <circle id="svg_64" r="0.45" cy="3.87" cx="7.82"/>
   <circle id="svg_65" r="0.45" cy="5.948" cx="8.27"/>
   <circle id="svg_66" r="0.45" cy="7.428" cx="7.973"/>
   <circle id="svg_67" r="0.45" cy="8.072" cx="9.342"/>
   <circle id="svg_68" r="0.45" cy="9.315" cx="8.206"/>
   <circle id="svg_69" r="0.45" cy="9.475" cx="9.682"/>
   <circle id="svg_70" r="0.45" cy="6.186" cx="9.688"/>
   <circle id="svg_71" r="0.45" cy="6.296" cx="3.379"/>
   <circle id="svg_72" r="0.45" cy="8.204" cx="2.871"/>
   <circle id="svg_73" r="0.45" cy="8.719" cx="4.59"/>
   <circle id="svg_74" r="0.45" cy="9.671" cx="3.181"/>
   <circle id="svg_75" r="0.45" cy="7.315" cx="5.734"/>
   <circle id="svg_76" r="0.45" cy="6.513" cx="6.707"/>
   <circle id="svg_77" r="0.45" cy="9.67" cx="5.73"/>
   <circle id="svg_78" r="0.45" cy="8.373" cx="6.535"/>
   <circle id="svg_79" r="0.45" cy="7.154" cx="4.37"/>
   <circle id="svg_80" r="0.45" cy="7.25" cx="0.622"/>
   <circle id="svg_81" r="0.45" cy="5.679" cx="0.831"/>
   <circle id="svg_82" r="0.45" cy="8.519" cx="1.257"/>
   <circle id="svg_83" r="0.45" cy="6.877" cx="1.989"/>
   <circle id="svg_84" r="0.45" cy="3.181" cx="0.374"/>
   <circle id="svg_85" r="0.45" cy="1.664" cx="1.166"/>
   <circle id="svg_86" r="0.45" cy="0.093" cx="1.151"/>
   <circle id="svg_87" r="0.45" cy="10.093" cx="1.151"/>
   <circle id="svg_88" r="0.45" cy="4.451" cx="1.302"/>
   <circle id="svg_89" r="0.45" cy="3.763" cx="3.047"/>
  </pattern>
 </defs>
 <g>
  <title>Layer 1</title>
  <g id="svg_90" fill-rule="evenodd">
   <path id="svg_91" stroke-width="0.29055" stroke="#f00" fill="#fff" d="m59.7209,76.3539c-0.97086,3.621 -0.13302,7.0159 1.6643,10.291l3.3013,40.1s8.9805,15.003 32.736,14.897c33.515,-0.15065 37.517,-16.368 37.517,-16.368l3.1264,-38.253l1.3951,-4.934s0.34537,-3.9093 0.07618,-7.9396c-0.47442,-7.1029 -15.86,-11.42 -26.483,-13.793c-7.004,-1.5646 -17.033,-1.6607 -24.092,-0.36782c-8.9814,1.645 -19.204,2.6532 -25.931,8.8276c-2.0222,1.8562 -3.3104,7.5403 -3.3104,7.5403l0.00012,-0.00048z"/>
   <path id="svg_92" fill="url(#q)" d="m61.7149,85.8419l3.1535,40.964c12.227,17.667 28.154,14.965 35.02,15.469c13.54,0.99259 25.774,-4.4055 34.683,-16.769l4.3564,-42.427c-1.1177,1.9125 -1.4776,3.6872 -3.4461,5.7544c0,0 0.59774,20.891 -2.991,30.43c-2.5159,6.6878 -6.4931,13.532 -12.484,17.426c-5.7523,3.7389 -13.298,4.3561 -20.157,4.5292c-7.1032,0.17932 -11.282,0.22817 -17.807,-2.5851c-4.8506,-2.0914 -10.124,-7.3092 -11.973,-11.437c-5.391,-12.034 -6.2746,-38.948 -6.2746,-38.948c-0.82039,-0.29462 -1.5524,-1.3004 -2.0807,-2.4058l0.0005,-0.0007z"/>
   <path id="svg_93" solid-color="#000000" shape-rendering="auto" image-rendering="auto" color-rendering="auto" color="#000000" d="m132.9939,85.0989c-7.9025,4.2231 -16.631,6.0985 -25.544,7.0057c-9.5246,0.96945 -21.216,0.05002 -31.816,-2.8137c-3.6063,-0.97426 -8.1348,-3.1038 -10.922,-4.9949c-2.7663,-1.8771 -4.9945,-4.536 -4.9792,-6.6988l-0.82897,-2.7743c0.00033,1.079 -0.50367,3.3121 -0.12997,5.679c0.45363,2.8731 0.95331,4.9714 1.8455,5.7757l3.1246,40.379c1.3074,3.1938 3.6137,6.418 6.0454,8.321c5.0193,3.928 14.045,8.0213 28.632,8.2171c14.625,0.19632 24.442,-4.0807 30.235,-8.4127c5.7934,-4.3319 7.7497,-9.3901 7.7497,-9.3901l3.1258,-39.546c0.45165,-0.82127 0.42321,-1.767 0.47217,-2.5349c0.12372,-1.9405 0.88147,-6.1843 0.7435,-8.0661c-0.78536,3.7564 -2.2783,6.9282 -7.7538,9.8542l0.00027,-0.0002zm5.6994,-2.7095c-0.02667,1.2952 -0.65489,3.6009 -1.4467,4.2298c-1.12,10.384 -1.8895,28.174 -3.5552,37.831c-0.10814,0.22768 -1.197,3.818 -6.3485,7.6699c-5.3164,3.9752 -14.659,8.5257 -28.728,8.3369c-14.107,-0.18936 -22.242,-4.3582 -26.694,-7.9111c-2.2992,-1.8353 -4.2612,-3.9256 -5.416,-6.6094c-1.6228,-10.402 -2.5617,-28.491 -4.3489,-40.005c-0.93713,-0.78307 -1.7865,-3.3071 -1.9646,-4.2144c0.58871,0.80818 3.8821,3.8506 4.5471,4.3018c3.114,2.1131 6.9859,3.8713 10.896,4.9277c10.916,2.949 22.413,3.7121 32.35,2.7007c9.2198,-0.93843 20.124,-3.8428 25.896,-7.2772c1.4589,-0.86797 3.8808,-2.7263 4.8112,-3.9803l0.0016,-0.0004z"/>
   <path id="svg_94" fill="#fff" d="m58.6919,77.5839l-5.0067,-0.09753c-3.4778,0.73987 -4.6978,2.6955 -5.982,4.6165c-1.7436,2.8045 -0.83945,4.8868 -0.84528,7.2174l3.1861,4.0313l13.102,5.1367l3.3811,0.74775l0.48766,-3.5762c-0.43993,-2.1355 0.1409,-3.822 -2.2758,-6.8273l-2.5684,0.2926l-8.2902,-3.6087l0.06502,-2.1457l5.3968,-0.26008c-0.39722,-1.4389 -0.69738,-3.4182 -0.65022,-5.5268l-0.00008,0.00006z"/>
   <path id="svg_95" fill="#fff" d="m140.0989,82.9159l0.65022,-7.4775l5.2667,-0.06502s4.6284,1.9164 6.047,3.8363c1.1218,1.5181 1.5533,3.5751 1.4955,5.4618c-0.0617,2.0141 -0.60888,4.2185 -1.9506,5.7219c-4.4866,5.0272 -18.271,8.6479 -18.271,8.6479l0.19506,-5.917l1.4305,-4.1614l3.9013,-0.84528l7.4775,-3.5762c0.92202,-0.78026 1.3171,-1.5605 0,-2.3408l-6.24218,0.7153z"/>
   <path id="svg_96" solid-color="#000000" shape-rendering="auto" image-rendering="auto" color-rendering="auto" color="#000000" d="m50.2007,77.9519c-1.7636,1.1102 -3.0541,2.838 -3.81,4.783c-0.58227,1.4982 -1.0115,3.0948 -0.78653,4.6748c0.27021,1.8973 1.1699,4.6295 2.3139,5.368c4.8416,3.1257 10.932,6.06 16.481,7.4131c1.0073,0.24565 2.4568,0.86252 3.1035,-0.29932c0.79492,-1.4281 0.21096,-4.4275 0.08979,-5.9637c-0.15089,-1.913 -0.79893,-3.858 -2.0146,-5.3663c-0.73195,-0.66581 -1.8764,-0.87385 -2.7759,-0.43492c-2.1855,-0.28431 -4.3054,-1.0799 -6.6181,-2.1727c-0.46729,-0.27474 -1.4714,-1.2084 -0.12832,-1.1187c0.75424,-0.02209 2.5245,0.07028 3.7291,0.1029c-0.48806,-1.7812 -0.82595,-3.5836 -0.93288,-4.6307c-0.12683,-1.242 -0.18766,-1.8873 -0.08742,-3.9845c-2.0297,-0.46394 -5.6409,-0.21066 -8.5633,1.629l-0.00024,0.00004zm8.4355,0.22028c-0.06949,0.19402 -0.21555,1.6883 0.30395,3.8603c-1.9321,0.2896 -4.1066,-0.41782 -5.8931,0.06579c-1.0658,0.30586 -1.1775,2.2494 -0.47719,3.0296c1.739,1.9371 4.3381,2.5853 6.6517,3.5397c1.1273,0.40228 2.2511,0.90561 3.3838,1.2371c0.38392,-0.09156 0.82763,-0.26689 1.0966,-0.23911c1.2769,0.1931 1.5697,1.8734 1.8791,2.9317c0.3972,1.3585 0.35952,2.809 0.50678,4.2132c0.13247,1.2631 -1.6046,0.2305 -2.3138,0.07306c-5.0059,-1.1114 -9.8897,-3.0455 -14.176,-5.9382c-1.5595,-1.0525 -1.8446,-3.0395 -2.0161,-4.7356c-0.18692,-1.8489 0.63088,-3.71 1.7495,-5.1438c1.1766,-1.5081 2.965,-2.445 4.9752,-2.7428c2.0102,-0.29786 2.932,-0.22074 4.3295,-0.15088l0.00006,-0.00006z"/>
   <path id="svg_97" solid-color="#000000" shape-rendering="auto" image-rendering="auto" color-rendering="auto" color="#000000" d="m143.3279,74.2879c-1.0055,-0.0059 -1.4577,0.01982 -2.4861,0.11733c-0.33916,3.3025 -1.0997,6.8968 -0.94483,9.87c1.3823,-0.24972 1.9682,-0.43989 3.5614,-0.76881c0.71125,-0.14684 2.4291,-0.24162 2.6801,0.10274c-2.9832,2.4323 -6.8834,3.9984 -10.272,4.6157c-1.1268,-0.56176 -1.4204,0.72061 -1.8288,1.7327c-1.2684,3.1438 -1.4089,6.9543 -1.1429,9.7807c6.2153,-1.5053 11.237,-3.4489 16.785,-6.6495c1.9587,-1.1299 3.8071,-3.15 4.3115,-5.4898c0.87938,-4.0793 0.26275,-8.5117 -3.303,-10.853c-2.3219,-1.5246 -4.5659,-2.4417 -7.3599,-2.458l-0.00047,-0.00006zm-0.88576,1.7725c2.2559,-0.25982 5.0868,0.62561 7.0293,1.7715c2.9057,1.7142 3.1123,5.2411 2.9107,8.4919c-0.12298,1.9828 -1.6203,3.4179 -3.2107,4.3616c-4.8389,2.8712 -9.8074,5.6466 -15.206,7.174c0.1763,-2.4708 0.28014,-5.7071 1.4028,-7.9394c0.9137,0.4183 1.8057,-0.30146 2.6495,-0.59281c1.6505,-0.56986 3.3924,-1.0377 4.976,-1.7881c1.898,-0.8993 3.5846,-2.2025 5.2221,-3.4961c1.0908,-0.86171 -0.089,-2.6124 -1.2258,-2.8839c-1.7709,-0.42297 -2.7588,-0.4031 -3.7335,-0.33682c-0.86739,0.05897 -1.7838,0.21275 -2.9562,0.34153l0.4677,-4.7443c0.48559,-0.18334 1.1554,-0.29947 1.6741,-0.35922l0,0.00012z"/>
   <path id="svg_98" solid-color="#000000" shape-rendering="auto" image-rendering="auto" color-rendering="auto" color="#000000" d="m100.5479,58.0899c-5.5578,0.07355 -15.615,1.1372 -24.459,3.6582c-4.422,1.2605 -8.5348,2.8746 -11.654,5.0117c-3.1195,2.1371 -5.5805,4.6034 -5.5674,8.0662c0.01297,3.4357 2.3856,6.458 5.4541,8.6307s7.1454,4.004 11.639,5.2738c8.9866,2.5395 19.531,3.3421 26.851,3.0251c7.2776,-0.31521 16.345,-1.657 23.966,-4.4255c3.8104,-1.3842 7.6526,-3.4369 10.151,-5.5416c2.4986,-2.1048 4.0724,-4.4014 3.9354,-7.4544c-0.14158,-3.1555 -2.3642,-5.6975 -5.3789,-7.7031s-6.9546,-3.5927 -11.195,-4.8594c-8.4815,-2.5333 -18.113,-3.7561 -23.742,-3.6816l-0.0002,-0.0001zm-0.09375,1.9902c5.1613,-0.0683 14.876,1.3881 23.025,3.8223c4.0748,1.2171 8.0632,2.8818 10.695,4.6328s4.2019,4.4442 4.248,6.3164c0.0422,1.7131 -0.51354,2.8169 -1.5059,3.8887c0.13379,-1.2847 -0.05585,-2.6388 -0.29492,-3.793c-0.8833,-4.2643 -4.6749,-6.0261 -4.9874,-6.1423c-1.9446,-0.72267 -3.4899,-0.74049 -0.41301,0.70476c0.30177,0.14174 3.2825,1.9597 4.0541,5.6846c0.33092,1.5976 0.62368,3.6144 0.09462,4.5259c-0.52906,0.91154 -0.86296,1.1637 -1.2131,1.4164c0.05709,-0.73712 0.0247,-1.6899 -0.19727,-2.7617c-0.47809,-2.3084 -1.837,-5.1291 -4.9824,-7.0078c-8.8011,-5.2568 -20.228,-7.643 -30.455,-7.0757c-12.257,0.67995 -25.286,2.8478 -33.011,10.469c-1.6568,1.6345 -1.7758,4.2673 -1.6884,5.7066c-0.32994,-0.33946 -0.63949,-0.68659 -0.91016,-1.0449c-0.28606,-1.7021 0.08772,-3.6258 0.73047,-4.8297c2.4458,-4.426 5.1686,-5.4656 6.2938,-5.9833c2.6363,-1.2131 1.1119,-1.0897 0.14368,-0.66164c-1.7008,0.75202 -4.779,1.7695 -7.3672,6.4531c-0.60449,1.0939 -0.86851,2.0856 -0.96875,2.9609c-0.29128,-0.73938 -0.46216,-1.4795 -0.46484,-2.1895c-0.0085,-2.2505 1.7313,-4.8746 4.4316,-6.7246c2.7004,-1.85 6.7092,-3.7364 10.957,-4.9473c8.4958,-2.4217 18.552,-3.3507 23.785,-3.4199l0.00108,-0.00012zm28.102,12.101c2.8777,1.7188 3.9883,4.2955 4.4237,6.3975c0.21767,1.051 0.51268,2.1316 -0.56437,3.4153c-1.077,1.2837 -3.7967,2.3247 -6.3673,3.2585c-7.2305,2.6266 -16.609,3.9437 -23.592,4.2461c-6.9401,0.30059 -17.708,-0.67271 -26.311,-3.1035c-4.3011,-1.2154 -9.01,-3.4378 -10.558,-4.6033c-0.21489,-1.5793 -0.81296,-4.5847 0.67343,-5.9983c7.5424,-7.173 20.205,-10.513 32.362,-10.871c10.94,-0.32256 21.985,2.6475 29.933,7.2589l0.00054,-0.0002z"/>
   <path id="svg_99" stroke-width="0.31569" stroke="#000" fill="#fff" d="m99.6769,58.8989c-3.412,0.04344 -9.4225,1.7391 -9.2906,4.2973c0.03092,0.59979 0.48241,1.12 1.1735,1.5619c-0.33722,-0.18013 -0.66302,-0.36586 -0.97404,-0.56236c0.88819,2.5091 2.3744,4.568 4.2442,6.3408c-1.3517,-1.0083 -2.3978,-2.6295 -3.4463,-4.2442c-3.2545,0.90226 -4.7232,2.4009 -5.5939,4.0978c1.0736,2.2037 2.9117,3.6829 5.144,4.4458c3.053,1.0435 6.2533,1.8897 9.3924,1.6489c3.7229,-0.28563 7.4554,-0.60706 10.891,-2.9476c0.9531,-0.64939 1.6987,-1.5309 1.6977,-3.1471c-1.1003,-1.8325 -3.0288,-3.2128 -5.5939,-4.2463c-0.66904,1.4878 -1.6876,2.7836 -3.1534,3.8368c2.6283,-2.1449 3.241,-4.2893 4.153,-6.4342c-0.14362,0.11113 -0.30146,0.21718 -0.45413,0.32468c0.35079,-0.35991 0.57016,-0.74986 0.60268,-1.1735c0.18718,-2.4391 -5.5999,-3.8392 -8.7919,-3.7986l-0.00031,-0.00012zm-5.6703,6.8735c1.1573,0.32896 2.4207,0.54635 3.5821,0.64724c-1.3703,-0.10575 -2.5485,-0.33103 -3.5821,-0.64724zm5.7382,0.68756c-0.10956,0.0101 -0.20636,0.02476 -0.31832,0.03395c-0.05938,0.00017 -0.11104,-0.004 -0.16977,-0.0042c0.15255,-0.003 0.32664,-0.02114 0.48808,-0.02971l0.00001,-0.00004z"/>
   <path id="svg_100" stroke-width="0.31569" stroke="#7e0000" fill="url(#l)" d="m99.8109,59.0799c-3.412,0.04344 -9.4235,1.738 -9.2916,4.2961c0.11235,2.1789 5.6624,3.3426 8.7921,3.297c3.3454,-0.04873 9.1119,-1.4547 9.2916,-3.7966c0.18718,-2.4391 -5.6001,-3.8372 -8.7921,-3.7966l0,0.0001z"/>
   <path id="svg_101" stroke-width="0.31569" stroke="#f60" fill="url(#n)" d="m90.7189,64.3749c0.92925,2.6251 2.5021,4.7675 4.4959,6.5941c1.3488,0.54088 2.6976,1.1779 4.0464,0.94914c2.3946,0.01448 3.5651,-0.78705 4.7957,-1.5486c2.8532,-2.2147 3.4544,-4.4293 4.396,-6.644c-1.847,1.4292 -4.3947,2.5782 -8.892,2.9473c-4.1925,0.01225 -6.7668,-0.98686 -8.842,-2.2979l0,-0.00004z"/>
   <path id="svg_102" stroke-width="0.31569" stroke="#008000" fill="url(#m)" d="m91.5189,66.4729c-3.2545,0.90226 -4.7243,2.3994 -5.595,4.0963c1.0736,2.2037 2.9131,3.683 5.1454,4.446c3.053,1.0435 6.2524,1.8894 9.3915,1.6485c3.7229,-0.28563 7.455,-0.60681 10.89,-2.9473c0.9531,-0.64939 1.6995,-1.531 1.6985,-3.1472c-1.1003,-1.8325 -3.0299,-3.2127 -5.595,-4.2462c-0.88882,1.9766 -2.3924,3.6179 -4.7457,4.7957c-1.9752,0.70611 -3.9846,1.3594 -7.3933,-0.14986c-1.5276,-0.97447 -2.6583,-2.7429 -3.7966,-4.4959l0.0002,-0.00004z"/>
   <path id="svg_103" solid-color="#000000" shape-rendering="auto" image-rendering="auto" color-rendering="auto" color="#000000" d="m99.1949,58.5189c-2.7145,0.13258 -5.5033,0.72855 -7.8369,2.1862c-1.0854,0.678 -1.8373,2.0081 -1.3581,3.3652c0.31148,0.88214 0.77629,1.9283 0.77629,1.9283c-1.7007,0.34699 -4.8795,2.0042 -5.2711,3.869c-0.41159,1.9599 1.4735,3.8126 3.0687,4.633c3.2268,1.6595 7.449,2.5979 11.041,2.8046c3.6505,0.21004 7.197,-0.648 10.546,-2.0762c1.3772,-0.58733 3.0283,-1.7456 3.2355,-3.6521c0.21825,-2.0082 -1.2985,-3.5379 -2.8694,-4.4887c-0.74773,-0.45259 -2.5107,-1.2383 -2.5107,-1.2383c0.54168,-1.0916 1.1676,-2.3078 1.0508,-3.5298c-0.15931,-1.666 -2.0018,-2.4387 -3.4141,-2.904c-2.0716,-0.68246 -4.2806,-1.0034 -6.4581,-0.89706l0.00011,-0.00014zm7.5834,2.5593c1.2161,0.53237 1.6239,2.0305 0.35943,2.7516c-2.1384,1.2195 -4.6163,1.6725 -7.0255,1.817c-2.6629,0.15981 -5.3876,-0.1565 -7.9351,-1.0498c-1.2191,-0.42745 -1.2125,-1.9888 -0.05451,-2.8157c1.9624,-1.4013 3.8184,-1.7945 6.7502,-1.9969c2.9318,-0.20246 5.5306,0.25406 7.9055,1.2937l-0.00002,0.0001zm0.42329,3.9831c-1.0279,1.987 -2.3608,3.9723 -4.3233,5.1257c-2.1052,1.2373 -4.7686,0.85117 -6.9154,-0.07356c-1.9419,-0.83646 -2.7846,-2.4906 -3.7672,-4.2948c2.6434,1.0934 5.231,1.4217 8.0545,1.2654c2.4005,-0.13283 4.7965,-0.89671 6.9515,-2.0228l-0.0001,0.00006zm-15.926,1.8717c1.1169,1.8403 2.668,4.0284 4.762,4.7784c2.4896,0.89165 5.3813,0.75133 7.6951,-0.76634c1.5119,-0.9917 2.6496,-2.4489 3.6242,-3.9463c1.7943,0.58059 3.8282,1.2903 4.8072,3.0428c0.62104,1.1118 -0.27809,2.1202 -1.2083,2.6369c-2.8834,1.6016 -6.1642,2.4468 -9.4277,2.681c-3.398,0.24387 -6.8536,-0.32743 -10.074,-1.427c-1.7181,-0.5867 -3.6545,-1.3837 -4.527,-3.1017c-0.57038,-1.1231 0.42755,-2.1596 1.3593,-2.6706c0.94778,-0.51977 1.9573,-0.91705 2.989,-1.2272l0.0002,0.00004z"/>
   <path id="svg_104" fill="url(#o)" d="m140.3639,77.3189l-0.78162,6.9426c1.6467,-0.5009 4.8206,-1.3501 6.6509,-0.93529c0.60077,-0.8522 2.7074,-0.82147 3.0174,-0.88148c0.42053,-3.0073 -6.097,-5.0818 -8.8867,-5.1258l0.00002,-0.00003z"/>
   <path id="svg_105" fill="url(#p)" d="m58.8119,79.0509c-0.14625,2.0481 0.49319,3.8997 0.78162,5.8391c-1.6927,-0.08711 -5.2804,-0.33858 -7.0647,-0.15368c-0.32491,0.06735 -0.82233,-0.17779 -1.0404,-0.74355c-0.58101,-3.4887 4.4552,-5.1334 7.3234,-4.9419l0.00008,0.00003z"/>
   <path id="svg_106" fill="url(#r)" d="m66.1009,74.8249c-1.6779,1.7292 -1.5293,5.7083 -1.125,7.5c0,0 12.466,7.5555 34.312,7.8125s34,-7.625 34,-7.625c0.78217,-2.4964 0.39141,-4.7171 -1.25,-7.375c0.80026,1.6793 -5.1635,11.84 -32.812,12.25s-32.972,-10.879 -33.125,-12.562l0,-0.0005z"/>
  </g>
 </g>
</svg>